<svg width="244" height="244" viewBox="0 0 244 244" fill="none" xmlns="http://www.w3.org/2000/svg">
<path d="M122 221.125C167.969 205.28 200.736 168.446 205.875 121.548C207.301 101.189 207.18 80.751 205.514 60.4103C205.295 57.2038 203.888 54.1942 201.568 51.97C199.248 49.7457 196.181 48.4668 192.968 48.3832C172.172 47.7427 148.001 44.2758 129.325 25.8792C127.375 23.953 124.744 22.8729 122.003 22.8729C119.261 22.8729 116.63 23.953 114.68 25.8792C95.9987 44.2758 71.8275 47.7427 51.0367 48.3832C47.8237 48.4668 44.7574 49.7457 42.4373 51.97C40.1172 54.1942 38.7101 57.2038 38.491 60.4103C36.8235 80.7508 36.7011 101.189 38.125 121.548C43.2642 168.446 76.0314 205.28 122 221.125Z" fill="white" stroke="black" stroke-linecap="round" stroke-linejoin="round"/>
<path d="M163.08 155.039C167.318 153.878 170.805 151.112 170.805 144.349V77.5774C170.805 72.2516 167.34 68.7064 159.04 70.6538L121.208 79.5185L83.3813 70.6538C75.107 68.5748 71.6131 72.2516 71.6131 77.5774V144.349C71.6131 151.112 75.1006 153.878 79.3388 155.039L121.208 166.506L163.08 155.039ZM170.802 82.3418L176.182 81.6552C179.695 81.206 184.562 84.6486 184.562 88.1938V158.168C184.562 163.5 181.473 165.117 175.018 166.095L122 173.936L68.9823 166.095C62.5271 165.117 59.4375 163.5 59.4375 158.168V88.1938C59.4375 84.6486 64.3045 81.2028 67.8177 81.6552L71.6195 82.1397" fill="black"/>
<path d="M170.802 82.3418L176.182 81.6552C179.695 81.206 184.562 84.6486 184.562 88.1938V158.168C184.562 163.5 181.473 165.117 175.018 166.095L122 173.936L68.9823 166.095C62.5271 165.117 59.4375 163.5 59.4375 158.168V88.1938C59.4375 84.6486 64.3045 81.2028 67.8177 81.6552L71.6195 82.1397M163.08 155.039C167.318 153.878 170.805 151.112 170.805 144.349V77.5774C170.805 72.2516 167.34 68.7064 159.04 70.6538L121.208 79.5185L83.3813 70.6538C75.107 68.5748 71.6131 72.2516 71.6131 77.5774V144.349C71.6131 151.112 75.1006 153.878 79.3388 155.039L121.208 166.506L163.08 155.039Z" stroke="black" stroke-width="0.5" stroke-linecap="round" stroke-linejoin="round"/>
<path d="M171 82H71.5V145.5L72 148.5L74 152L76 154L79.5 155L121 166.5L166 154L168.5 152L170 149L171 145.5V82Z" fill="black" stroke="black"/>
<path d="M106.216 114.289C106.779 118.303 107.565 120.139 112.193 120.817C107.698 121.407 106.623 123.75 106.216 127.099C105.472 123.713 104.96 121.605 100.269 120.817C104.814 119.87 105.306 118.339 106.216 114.289ZM99.5977 97.755C100.152 102.084 100.755 105.666 107.479 106.79C101.406 107.304 100.673 110.81 99.5977 115.474C98.5334 110.745 97.989 107.388 91.9375 106.79C95.7546 105.41 98.7966 104.242 99.5977 97.755ZM114.039 105.601C114.494 108.851 115.133 110.341 118.882 110.89C115.242 111.366 114.367 113.267 114.039 115.979C113.436 113.236 113.022 111.527 109.218 110.89C112.903 110.123 113.301 108.881 114.039 105.601ZM139.929 104.658L147.149 111.727L125.707 134.074C121.402 138.559 116.464 141.825 112.135 143.824L109.273 141.18C111.093 136.479 114.616 130.799 118.531 126.756L139.929 104.658Z" fill="white" stroke="black" stroke-width="0.5" stroke-linecap="round" stroke-linejoin="round"/>
<path d="M112.83 143.152C111.923 144.254 109.711 145.105 108 145.573C108.33 144.208 108.728 142.101 109.966 140.508M147.663 99.8523L151.959 103.986C154.218 106.161 151.196 109.737 148.784 107.426L144.207 103.044C142.011 100.941 145.065 97.353 147.663 99.8523Z" fill="#D9D9D9"/>
<path d="M112.83 143.152C111.923 144.254 109.711 145.105 108 145.573C108.33 144.208 108.728 142.101 109.966 140.508M147.663 99.8523L151.959 103.986C154.218 106.161 151.196 109.737 148.784 107.426L144.207 103.044C142.011 100.941 145.065 97.353 147.663 99.8523Z" stroke="black" stroke-width="0.5" stroke-linecap="round" stroke-linejoin="round"/>
</svg>
